<?xml version="1.0" ?><svg height="60px" version="1.1" viewBox="0 0 46 60" width="46px" xmlns="http://www.w3.org/2000/svg" xmlns:xlink="http://www.w3.org/1999/xlink"><title/><desc/><g fill="none" fill-rule="evenodd" id="Page-1" stroke="none" stroke-width="1"><g id="007---Coffee-Cup"><path d="M10.615,8.5 C10.4063946,8.50023495 10.2195649,8.3709348 10.1462942,8.17562054 C10.0730235,7.98030627 10.1287113,7.76002746 10.286,7.623 L13.878,4.486 L8.278,7.718 C8.05561016,7.84497371 7.77323369,7.78339499 7.62390057,7.5753585 C7.47456745,7.36732202 7.50655637,7.08008497 7.698,6.91 L10.666,4.3 L8.279,5.673 C8.06374199,5.79594721 7.79089918,5.74260939 7.63778845,5.54765007 C7.48467773,5.35269075 7.49753309,5.07498072 7.668,4.895 L9.079,3.421 L8.279,3.883 C8.08688506,3.99351228 7.84494405,3.96436512 7.68457226,3.81138799 C7.52420047,3.65841086 7.48367306,3.41811409 7.585,3.221 L8.076,2.264 C7.85825235,2.24586542 7.67749969,2.08843966 7.62963948,1.8752442 C7.58177928,1.66204874 7.67789787,1.4424682 7.867,1.333 L8.971,0.7 C9.16290974,0.590032536 9.40426728,0.619221749 9.56442924,0.771767938 C9.7245912,0.924314128 9.765495,1.1639646 9.665,1.361 L9.249,2.172 L11.614,0.8 C11.8296332,0.673932215 12.1052237,0.726338829 12.2595329,0.922755271 C12.4138421,1.11917171 12.3995263,1.39933535 12.226,1.579 L10.814,3.055 L14.514,0.919 C14.7363898,0.792026294 15.0187663,0.853605009 15.1680994,1.0616415 C15.3174326,1.26967798 15.2854436,1.55691503 15.094,1.727 L12.129,4.339 L17.821,1.052 C18.0440421,0.9220903 18.329313,0.983309099 18.4794139,1.19329487 C18.6295149,1.40328063 18.5951072,1.69301038 18.4,1.862 L14.808,5 L21.628,1.062 C21.8557686,0.929287587 22.1474462,0.996206624 22.2945848,1.21493332 C22.4417234,1.43366001 22.3937724,1.72904896 22.185,1.89 L19.591,3.9 L24.512,1.059 C24.7386681,0.927244177 25.0286136,0.992948598 25.1763416,1.20954615 C25.3240695,1.4261437 25.2794035,1.72006617 25.074,1.883 L22.116,4.251 L27.654,1.051 C27.8797557,0.917144452 28.1705829,0.980623299 28.32003,1.19637437 C28.469477,1.41212544 28.4266715,1.70670596 28.222,1.871 L25.009,4.511 L31.249,0.911 C31.4775788,0.778027092 31.7701739,0.846034048 31.916677,1.06618608 C32.0631801,1.28633812 32.0129254,1.582499 31.802,1.742 L29.3,3.644 L34.252,0.787 C34.4838603,0.653938284 34.779371,0.7267957 34.9228066,0.952385712 C35.0662423,1.17797572 35.0068559,1.47648534 34.788,1.63 L34.676,1.708 L36.424,0.7 C36.6544184,0.567763564 36.9480189,0.638810718 37.0924864,0.861764193 C37.2369538,1.08471767 37.18184,1.38172178 36.967,1.538 L35.333,2.721 L37.646,1.386 C37.8661191,1.26489213 38.1419248,1.32593065 38.2903868,1.52860915 C38.4388488,1.73128765 38.4138585,2.01265925 38.232,2.186 L34.9,5.225 L37.733,3.589 C37.950123,3.46833323 38.2229085,3.52535899 38.3735105,3.72289861 C38.5241125,3.92043823 38.5068596,4.19858604 38.333,4.376 L37.081,5.621 L37.738,5.241 C37.912534,5.14012015 38.1305773,5.15392036 38.291,5.276 C38.4518762,5.39791662 38.5236662,5.60460872 38.473,5.8 L38.124,7.136 C38.3203984,7.18707891 38.4664444,7.35179839 38.4936381,7.55290008 C38.5208318,7.75400177 38.4237788,7.95159396 38.248,8.053 L37.641,8.404 C37.4664137,8.50488166 37.2483169,8.49102363 37.0879034,8.36885583 C36.9274899,8.24668802 36.8561561,8.04012143 36.907,7.845 L37.2,6.7 L34.251,8.4 C34.033877,8.52066677 33.7610915,8.46364101 33.6104895,8.26610139 C33.4598875,8.06856177 33.4771404,7.79041396 33.651,7.613 L34.9,6.376 L31.38,8.41 C31.1597714,8.53274667 30.8826072,8.47232249 30.7334541,8.26904742 C30.584301,8.06577234 30.6098274,7.78324897 30.793,7.61 L34.131,4.57 L27.472,8.414 C27.2415816,8.54623644 26.9479811,8.47518928 26.8035136,8.25223581 C26.6590462,8.02928233 26.71416,7.73227822 26.929,7.576 L28.558,6.4 L25.058,8.421 C24.8249358,8.56928844 24.5157885,8.50056415 24.3675,8.26749999 C24.2192116,8.03443583 24.2879358,7.72528846 24.521,7.577 L24.636,7.498 L23.036,8.422 C22.8079458,8.55104158 22.518953,8.4821323 22.3736647,8.26406857 C22.2283765,8.04600484 22.2760821,7.75276517 22.483,7.592 L24.983,5.685 L20.237,8.425 C20.0118281,8.55314755 19.7260672,8.48806634 19.5785944,8.27505005 C19.4311216,8.06203376 19.4707934,7.77165294 19.67,7.606 L22.884,4.967 L16.884,8.428 C16.6576394,8.55892511 16.3686279,8.49331659 16.2209838,8.27748863 C16.0733396,8.06166067 16.1169371,7.76852013 16.321,7.605 L19.279,5.24 L13.754,8.428 C13.5267603,8.55301694 13.2416542,8.48352441 13.0974274,8.26796526 C12.9532006,8.05240611 12.9977411,7.76235288 13.2,7.6 L15.79,5.587 L10.865,8.431 C10.789186,8.47558812 10.7029517,8.49938878 10.615,8.5 Z" fill="#F9E6A1" id="Path"/><path d="M15.028,59.471 C14.8054029,59.4707369 14.6097862,59.3233526 14.5481445,59.1094605 C14.4865028,58.8955685 14.5736826,58.6666848 14.762,58.548 L15.591,58.024 L13.2,59.4 C12.966796,59.5287421 12.6736061,59.4520483 12.5333128,59.2256054 C12.3930195,58.9991624 12.4548897,58.7024903 12.674,58.551 L24.014,51.022 L10.651,58.74 C10.4159134,58.867347 10.1222417,58.7872199 9.98440918,58.5581236 C9.84657667,58.3290272 9.91336118,58.0320368 10.136,57.884 L14.389,55.216 L10.119,57.681 C9.88358841,57.8189583 9.58104226,57.742708 9.43913631,57.5096547 C9.29723035,57.2766015 9.36837129,56.9728133 9.599,56.827 L20.191,50.013 L9.931,55.937 C9.69406984,56.0789372 9.38693719,56.0019301 9.24500001,55.765 C9.10306284,55.5280698 9.18006985,55.2209372 9.417,55.079 L11.8,53.6 L9.81,54.748 C9.57479134,54.873628 9.28238478,54.7925694 9.14542695,54.5637724 C9.00846913,54.3349754 9.07515999,54.0389612 9.297,53.891 L10.172,53.349 L9.697,53.622 C9.46239421,53.7473855 9.1706878,53.6671285 9.03323957,53.43938 C8.89579134,53.2116315 8.96072842,52.916137 9.181,52.767 L15.781,48.612 L9.553,52.212 C9.31875219,52.3428833 9.02295655,52.2655271 8.88277381,52.0367231 C8.74259108,51.8079191 8.80800878,51.5092561 9.031,51.36 L21.774,43.112 L9.364,50.273 C9.13022659,50.4017456 8.83654946,50.324198 8.69681202,50.0968241 C8.55707459,49.8694502 8.62054203,49.5724119 8.841,49.422 L23.441,39.878 L9.149,48.129 C8.91429663,48.2654868 8.61356262,48.1897325 8.47152587,47.9583456 C8.32948911,47.7269588 8.39806092,47.4245062 8.626,47.277 L23.253,37.747 L8.938,46.011 C8.70228214,46.1388172 8.40770301,46.0579384 8.27029801,45.8276776 C8.132893,45.5974169 8.20158616,45.2997602 8.426,45.153 L11.171,43.453 L8.818,44.811 C8.58258841,44.9489583 8.28004226,44.872708 8.13813631,44.6396547 C7.99623035,44.4066015 8.06737129,44.1028133 8.298,43.957 L21.198,35.683 L8.631,42.937 C8.39406984,43.0792133 8.08671335,43.0024301 7.94450004,42.7655 C7.80228672,42.5285698 7.87906987,42.2212133 8.116,42.079 L13.907,38.473 L8.5,41.6 C8.2627937,41.7413849 7.9558849,41.6637063 7.8145,41.4265 C7.6731151,41.1892937 7.7507937,40.8823849 7.988,40.741 L9.396,39.875 L8.386,40.457 C8.15113583,40.5882813 7.85449604,40.5101604 7.71475884,40.2802268 C7.57502164,40.0502931 7.64230117,39.7510081 7.867,39.603 L19.973,31.903 L8.206,38.69 C7.97197702,38.8152853 7.68084211,38.7358598 7.54286491,38.5090881 C7.4048877,38.2823163 7.46816705,37.9872508 7.687,37.837 L21.65,28.888 L8.013,36.762 C7.77682651,36.8981818 7.475092,36.8200681 7.33466817,36.5863919 C7.19424433,36.3527158 7.26689734,36.0496201 7.498,35.905 L15.654,30.805 L7.867,35.305 C7.63139128,35.4347647 7.3353429,35.35488 7.19699332,35.1242076 C7.05864373,34.8935353 7.12757667,34.5947469 7.353,34.448 L15.912,29.1 L7.72,33.828 C7.48551903,33.9550728 7.19257721,33.8757401 7.05426336,33.6477091 C6.9159495,33.4196782 6.98095755,33.1232282 7.202,32.974 L19.994,24.863 L7.542,32.052 C7.38926896,32.1447104 7.19867924,32.1488973 7.04202414,32.0629836 C6.88536904,31.9770698 6.7864482,31.8141078 6.78252414,31.6354836 C6.77860008,31.4568594 6.87026896,31.2897104 7.023,31.197 L21.653,21.859 L7.353,30.118 C7.11689827,30.2613179 6.80931791,30.1861017 6.66600002,29.95 C6.52268213,29.7138983 6.59789828,29.4063179 6.834,29.263 L21.293,20.054 L7.158,28.212 C6.9207937,28.3533849 6.61388491,28.2757063 6.47250002,28.0385 C6.33111513,27.8012937 6.40879372,27.4943849 6.646,27.353 L8.62,26.142 L7.042,27.053 C6.80722873,27.1866383 6.50876005,27.1096316 6.36794913,26.8790909 C6.22713821,26.6485501 6.2949089,26.3478498 6.521,26.2 L19.679,17.706 L6.849,25.113 C6.61356206,25.24755 6.31378515,25.1699022 6.17327187,24.9379739 C6.03275859,24.7060456 6.10273237,24.4043851 6.331,24.258 L13.439,19.758 L6.7,23.644 C6.4658557,23.777112 6.16834791,23.7008382 6.02712901,23.4714922 C5.88591011,23.2421463 5.95173295,22.9421531 6.176,22.793 L16.136,16.248 L6.517,21.8 C6.28299728,21.9389988 5.98079839,21.8652981 5.83706141,21.6341756 C5.69332442,21.4030531 5.76085357,21.0994155 5.989,20.951 L14.589,15.206 L6.338,19.97 C6.10528978,20.1115972 5.80205448,20.0408583 5.65601918,19.8109072 C5.50998389,19.5809562 5.57489266,19.2764196 5.802,19.126 L14,13.406 L6.131,17.949 C5.8995482,18.0803128 5.60579868,18.0073356 5.46270823,17.7829741 C5.31961778,17.5586125 5.37732745,17.2614862 5.594,17.107 L11.207,13.162 L5.955,16.194 C5.72458163,16.3262364 5.43098108,16.2551893 5.28651362,16.0322358 C5.14204615,15.8092823 5.19716002,15.5122782 5.412,15.356 L9.556,12.356 L5.79,14.527 C5.5589391,14.6568083 5.26673205,14.5837757 5.12391345,14.3605221 C4.98109485,14.1372685 5.03728544,13.8413608 5.252,13.686 L6.244,12.986 L5.669,13.318 C5.44929833,13.4548532 5.16147211,13.4014076 5.00554571,13.1948051 C4.84961931,12.9882026 4.87714767,12.6967536 5.069,12.523 L8.149,9.59 L5.449,11.148 C5.2437515,11.265948 4.9839174,11.2237972 4.82648088,11.0470136 C4.66904437,10.8702301 4.65715669,10.6072678 4.798,10.417 L6.084,8.685 L5.334,9.118 C5.15893544,9.21902525 4.9402651,9.2047126 4.77986253,9.08173001 C4.61945996,8.95874741 4.54887833,8.75128705 4.601,8.556 L4.813,7.756 C4.72505464,7.71187627 4.65253733,7.64214808 4.605,7.556 C4.46693533,7.31685985 4.54886592,7.01107519 4.788,6.873 L5.274,6.593 C5.44911448,6.49130658 5.66827603,6.50527803 5.8290596,6.6283848 C5.98984317,6.75149156 6.06049658,6.95942204 6.008,7.155 L5.878,7.642 L7.678,6.605 C7.8832485,6.48705199 8.1430826,6.52920284 8.30051912,6.7059864 C8.45795563,6.88276995 8.46984331,7.14573218 8.329,7.336 L7.041,9.076 L11.274,6.631 C11.4949688,6.49181219 11.7858365,6.54612374 11.9416883,6.75567242 C12.0975402,6.9652211 12.0658747,7.25941675 11.869,7.431 L8.794,10.362 L15.211,6.662 C15.4427427,6.52663456 15.7400201,6.59837019 15.8845243,6.82452724 C16.0290284,7.05068429 15.9692113,7.35058728 15.749,7.504 L14.757,8.204 L17.408,6.673 C17.6386768,6.53687606 17.9356494,6.60670713 18.0814904,6.83136663 C18.2273314,7.05602613 18.1702332,7.35570746 17.952,7.511 L13.8,10.509 L20.436,6.68 C20.6674518,6.54868719 20.9612013,6.62166435 21.1042918,6.84602591 C21.2473822,7.07038747 21.1896726,7.36751378 20.973,7.522 L15.362,11.465 L23.62,6.7 C23.8527102,6.55840281 24.1559455,6.62914166 24.3019808,6.85909275 C24.4480161,7.08904385 24.3831073,7.39358035 24.156,7.544 L15.956,13.267 L27.296,6.72 C27.5287769,6.59291033 27.820286,6.66967815 27.9602741,6.89493404 C28.1002621,7.12018994 28.0400209,7.41555728 27.823,7.568 L19.223,13.315 L30.614,6.734 C30.8487029,6.5934469 31.152787,6.66761164 31.2964238,6.90044007 C31.4400606,7.1332685 31.3699135,7.43830447 31.139,7.585 L21.18,14.13 L33.959,6.752 C34.1944379,6.61745005 34.4942149,6.69509783 34.6347281,6.92702611 C34.7752414,7.1589544 34.7052676,7.46061489 34.477,7.607 L27.377,12.107 L36.629,6.765 C36.8637713,6.63136172 37.1622399,6.70836842 37.3030509,6.93890914 C37.4438618,7.16944986 37.3760911,7.47015024 37.15,7.618 L23.988,16.118 L40.146,6.785 C40.3834824,6.6436151 40.6906151,6.72151756 40.832,6.959 C40.9733849,7.19648244 40.8954824,7.5036151 40.658,7.645 L38.694,8.85 L40.687,7.7 C40.9231017,7.55668212 41.2306821,7.63189829 41.374,7.86800001 C41.5173179,8.10410173 41.4421017,8.4116821 41.206,8.555 L26.748,17.763 L40.6,9.763 C40.8354379,9.62845005 41.1352149,9.70609783 41.2757281,9.93802611 C41.4162414,10.1699544 41.3462676,10.4716149 41.118,10.618 L26.488,19.956 L40.388,11.935 C40.6229709,11.8057854 40.9180387,11.884938 41.0567925,12.114405 C41.1955462,12.3438721 41.1285762,12.6419411 40.905,12.79 L28.107,20.9 L40.184,13.928 C40.4196087,13.7982353 40.7156571,13.87812 40.8540067,14.1087924 C40.9923563,14.3394647 40.9234233,14.6382531 40.698,14.785 L32.136,20.136 L40.018,15.585 C40.2536087,15.4552353 40.5496571,15.53512 40.6880067,15.7657924 C40.8263563,15.9964647 40.7574233,16.2952531 40.532,16.442 L32.375,21.542 L39.854,17.224 C40.0894116,17.0860417 40.3919577,17.162292 40.5338637,17.3953453 C40.6757696,17.6283985 40.6046287,17.9321867 40.374,18.078 L26.41,27.026 L39.638,19.389 C39.8734379,19.25445 40.1732149,19.3320978 40.3137281,19.5640261 C40.4542414,19.7959544 40.3842676,20.0976149 40.156,20.244 L28.056,27.944 L39.443,21.37 C39.6802063,21.2286151 39.9871151,21.3062937 40.1285,21.5435 C40.2698849,21.7807063 40.1922063,22.0876151 39.955,22.229 L38.555,23.092 L39.318,22.652 C39.5536087,22.5222353 39.8496571,22.60212 39.9880067,22.8327924 C40.1263563,23.0634647 40.0574233,23.3622531 39.832,23.509 L34.052,27.109 L39.167,24.156 C39.4028256,24.0121298 39.7106298,24.0866744 39.8545,24.3225 C39.9983702,24.5583256 39.9238256,24.8661298 39.688,25.01 L26.788,33.287 L38.95,26.26 C39.1872063,26.118339 39.4943389,26.1957937 39.636,26.433 C39.777661,26.6702063 39.7002063,26.977339 39.463,27.119 L36.712,28.819 L38.812,27.604 C39.0472733,27.4593014 39.3553014,27.5327267 39.5,27.768 C39.6446986,28.0032733 39.5712733,28.3113014 39.336,28.456 L24.708,37.992 L38.578,29.984 C38.8132733,29.8393014 39.1213014,29.9127267 39.266,30.148 C39.4106986,30.3832733 39.3372733,30.6913014 39.102,30.836 L24.508,40.376 L38.337,32.392 C38.5708963,32.2650453 38.8632491,32.34355 39.0020871,32.5705941 C39.140925,32.7976381 39.0775886,33.0936477 38.858,33.244 L26.114,41.491 L38.121,34.56 C38.3559709,34.4307854 38.6510387,34.509938 38.7897925,34.739405 C38.9285462,34.9688721 38.8615762,35.2669411 38.638,35.415 L32.031,39.571 L37.962,36.147 C38.1982075,36.013929 38.4974329,36.0933491 38.6365599,36.3260411 C38.775687,36.558733 38.7040212,36.8599098 38.475,37.005 L37.587,37.555 L37.835,37.412 C38.0719302,37.2700628 38.3790628,37.3470699 38.521,37.584 C38.6629371,37.8209302 38.5859301,38.1280628 38.349,38.27 L35.963,39.753 L37.702,38.753 C37.9378256,38.6091298 38.2456298,38.6836744 38.3895,38.9195 C38.5333702,39.1553256 38.4588256,39.4631298 38.223,39.607 L27.63,46.416 L37.505,40.716 C37.7405125,40.58404 38.0382497,40.6628611 38.1776204,40.8940652 C38.3169912,41.1252694 38.2476627,41.425359 38.021,41.572 L33.769,44.239 L37.36,42.166 C37.594721,42.020473 37.902973,42.092779 38.0485,42.3275 C38.194027,42.562221 38.121721,42.870473 37.887,43.016 L26.551,50.542 L37.133,44.433 C37.3676058,44.3076145 37.6593122,44.3878715 37.7967604,44.61562 C37.9342087,44.8433685 37.8692716,45.138863 37.649,45.288 L36.812,45.816 L37.006,45.705 C37.2378603,45.5719383 37.533371,45.6447957 37.6768066,45.8703857 C37.8202423,46.0959757 37.7608559,46.3944853 37.542,46.548 L28.663,52.748 L36.77,48.068 C37.0033681,47.9297329 37.3044194,48.0027583 37.4485003,48.2325824 C37.5925813,48.4624065 37.5271353,48.7651959 37.301,48.915 L33.215,51.689 L36.6,49.738 C36.8329673,49.6052309 37.1291919,49.6798716 37.2714287,49.9071822 C37.4136655,50.1344927 37.3512693,50.4335361 37.13,50.585 L35.685,51.563 L36.462,51.115 C36.6930609,50.9851917 36.985268,51.0582243 37.1280866,51.2814779 C37.2709051,51.5047315 37.2147146,51.8006392 37,51.956 L35.482,53.026 L36.319,52.544 C36.5465891,52.4141103 36.8358511,52.481968 36.9819348,52.6995172 C37.1280186,52.9170664 37.0813591,53.2104945 36.875,53.372 L35.024,54.8 L36.163,54.142 C36.388024,54.0121673 36.6749893,54.0762954 36.8233401,54.289566 C36.9716909,54.5028366 36.9319971,54.7941884 36.732,54.96 L35.99,55.575 L36.021,55.558 C36.2354477,55.4337401 36.5085608,55.4853333 36.6629004,55.6792601 C36.8172401,55.8731869 36.8062201,56.1509119 36.637,56.332 L36.02,57 C36.2043081,57.0005507 36.3757052,57.094725 36.475,57.25 C36.6130647,57.4891402 36.5311341,57.7949248 36.292,57.933 L33.737,59.4 C33.5226254,59.5227956 33.2507029,59.4706141 33.0970109,59.2771871 C32.9433189,59.0837601 32.9539364,58.8070797 33.122,58.626 L33.608,58.106 L31.366,59.4 C31.1414014,59.5270093 30.8570426,59.4622563 30.709581,59.2505232 C30.5621193,59.03879 30.599989,58.7496209 30.797,58.583 L31.539,57.968 L29.057,59.4 C28.8294109,59.5298897 28.5401489,59.462032 28.3940652,59.2444828 C28.2479814,59.0269336 28.2946409,58.7335055 28.501,58.572 L30.353,57.143 L26.44,59.4 C26.2095481,59.5256553 25.9211635,59.4517188 25.7795964,59.2306847 C25.6380293,59.0096505 25.6914804,58.7167764 25.902,58.56 L27.416,57.5 L24.109,59.4 C23.8767623,59.5273115 23.5855367,59.4514462 23.444931,59.2270077 C23.3043254,59.0025693 23.3631209,58.7074236 23.579,58.554 L25.027,57.573 L21.861,59.4 C21.6284738,59.5307666 21.3342409,59.4559509 21.1924191,59.2299976 C21.0505973,59.0040443 21.1111447,58.7065473 21.33,58.554 L25.415,55.78 L19.144,59.4 C18.9125482,59.5313128 18.6187987,59.4583356 18.4757082,59.2339741 C18.3326178,59.0096125 18.3903274,58.7124862 18.607,58.558 L27.486,52.352 L15.278,59.4 C15.2023816,59.4452887 15.1161348,59.4697828 15.028,59.471 Z" fill="#766458" id="Path"/><path d="M9.931,47.472 C9.70803205,47.4726295 9.51159255,47.3255478 9.44941967,47.1114226 C9.38724678,46.8972973 9.47436748,46.6678818 9.663,46.549 L19.063,40.603 L8.312,46.811 C8.07571551,46.9416359 7.7783959,46.8610916 7.64036069,46.629052 C7.50232548,46.3970124 7.57343688,46.0972967 7.801,45.952 L8.276,45.66 L8.076,45.772 C7.84048752,45.90396 7.54275028,45.8251389 7.40337956,45.5939348 C7.26400883,45.3627306 7.33333729,45.062641 7.56,44.916 L17.21,38.864 L7.9,44.243 C7.66597702,44.3682853 7.37484211,44.2888598 7.23686491,44.0620881 C7.0988877,43.8353163 7.16216705,43.5402508 7.381,43.39 L21.992,34.042 L7.668,42.312 C7.43258841,42.4499583 7.13004226,42.373708 6.98813631,42.1406547 C6.84623035,41.9076015 6.91737129,41.6038133 7.148,41.458 L20.348,32.977 L7.448,40.427 C7.21394313,40.5627068 6.91439919,40.4876207 6.77202962,40.2575558 C6.62966004,40.0274909 6.69611669,39.725915 6.922,39.577 L20.488,30.591 L7.188,38.269 C6.95455395,38.4042991 6.65586548,38.3299722 6.51305528,38.1010439 C6.37024508,37.8721157 6.43483112,37.5711706 6.659,37.421 L17.966,29.827 L6.931,36.192 C6.69941998,36.3214027 6.40709094,36.2474223 6.2649429,36.0234396 C6.12279487,35.7994568 6.18031516,35.5034487 6.396,35.349 L16.108,28.639 L6.678,34.084 C6.44706935,34.2157312 6.15343261,34.1437083 6.00966625,33.9200717 C5.86589989,33.6964351 5.92228415,33.3993987 6.138,33.244 L13.892,27.726 L6.432,32.032 C6.19989075,32.1610838 5.90736277,32.0861763 5.76586067,31.861422 C5.62435857,31.6366678 5.68326442,31.3405025 5.9,31.187 L8.791,29.219 L6.269,30.675 C6.04094576,30.8040416 5.75195296,30.7351323 5.60666471,30.5170686 C5.46137647,30.2990048 5.50908208,30.0057652 5.716,29.845 L10.274,26.368 L6.045,28.81 C5.8216237,28.947273 5.53014895,28.8886872 5.37716097,28.6757658 C5.22417298,28.4628444 5.26163697,28.16791 5.463,28 L8.932,24.92 L5.8,26.734 C5.59123664,26.8541586 5.32647515,26.8083925 5.17016086,26.6251275 C5.01384658,26.4418625 5.01041605,26.1731965 5.162,25.986 L6.923,23.819 L5.546,24.619 C5.35463048,24.7319952 5.11164664,24.7051158 4.9496016,24.5530249 C4.78755657,24.4009341 4.74534734,24.1601395 4.846,23.962 L5.232,23.192 C5.00607667,23.1910895 4.80883217,23.0387918 4.7507945,22.8204485 C4.69275683,22.6021052 4.78834697,22.3719693 4.984,22.259 L6.123,21.602 C6.31436952,21.4890048 6.55735336,21.5158842 6.7193984,21.6679751 C6.88144343,21.8200659 6.92365266,22.0608605 6.823,22.259 L6.492,22.918 L8.772,21.602 C8.98070168,21.4830653 9.24448669,21.5293505 9.40022994,21.7122327 C9.55597318,21.8951148 9.5596556,22.1629045 9.409,22.35 L7.648,24.518 L12.694,21.6 C12.9162396,21.4714218 13.1997439,21.5320691 13.3499297,21.7403165 C13.5001156,21.9485639 13.4681619,22.2367162 13.276,22.407 L9.809,25.485 L16.538,21.6 C16.7660542,21.4709584 17.055047,21.5398677 17.2003353,21.7579314 C17.3456235,21.9759952 17.2979179,22.2692348 17.091,22.43 L12.531,25.9 L19.993,21.6 C20.2263681,21.4617329 20.5274194,21.5347583 20.6715003,21.7645824 C20.8155813,21.9944065 20.7501353,22.2971959 20.524,22.447 L17.635,24.413 L22.507,21.6 C22.7386336,21.4619886 23.0379786,21.5324985 23.1836613,21.7593858 C23.3293439,21.986273 23.268887,22.2878091 23.047,22.441 L15.293,27.96 L26.307,21.6 C26.5397682,21.4620613 26.8400334,21.5343095 26.984577,21.7630348 C27.1291206,21.9917601 27.0654951,22.2939699 26.841,22.445 L17.122,29.158 L30.214,21.6 C30.4470829,21.4693387 30.7417074,21.5450343 30.8829423,21.7718661 C31.0241772,21.998698 30.9621015,22.2964899 30.742,22.448 L19.442,30.04 L34.062,21.6 C34.2960569,21.4642932 34.5956008,21.5393793 34.7379704,21.7694442 C34.88034,21.9995091 34.8138833,22.301085 34.588,22.45 L21.021,31.431 L38.056,21.6 C38.2903611,21.4711077 38.5846543,21.5494773 38.7238755,21.7778537 C38.8630968,22.0062301 38.7979368,22.3037271 38.576,22.453 L25.376,30.938 L40.5,22.2 C40.7348642,22.0687187 41.031504,22.1468396 41.1712412,22.3767732 C41.3109784,22.6067069 41.2436988,22.9059919 41.019,23.054 L26.408,32.4 L40.389,24.329 C40.6251735,24.1928182 40.926908,24.2709319 41.0673318,24.5046081 C41.2077557,24.7382842 41.1351027,25.0413799 40.904,25.186 L31.266,31.23 L40.178,26.085 C40.4142845,25.9543641 40.7116041,26.0349084 40.8496393,26.266948 C40.9876745,26.4989876 40.9165631,26.7987033 40.689,26.944 L40.089,27.314 C40.3290247,27.2142883 40.6054183,27.3151023 40.7248775,27.5459351 C40.8443368,27.7767679 40.7670197,28.0606322 40.547,28.199 L31.13,34.155 L39.812,29.143 C40.0467713,29.0093617 40.3452399,29.0863684 40.4860509,29.3169091 C40.6268618,29.5474499 40.5590911,29.8481502 40.333,29.996 L30.017,36.671 L39.57,31.155 C39.8055494,31.0105776 40.1135775,31.0844506 40.258,31.32 C40.4024224,31.5555495 40.3285494,31.8635775 40.093,32.008 L32.593,36.873 L39.356,32.973 C39.5903611,32.8441077 39.8846543,32.9224773 40.0238755,33.1508537 C40.1630968,33.3792301 40.0979368,33.6767271 39.876,33.826 L36.328,36.1 L39.174,34.457 C39.4075451,34.3241562 39.7043244,34.3996362 39.8460248,34.6279163 C39.9877252,34.8561964 39.9236794,35.1556514 39.701,35.306 L34.574,38.72 L38.967,36.185 C39.1968251,36.0571232 39.4864281,36.1291542 39.6295685,36.3497961 C39.7727089,36.570438 39.7204466,36.8642525 39.51,37.022 L33.051,41.7 L38.7,38.444 C38.9283835,38.3140028 39.2184238,38.3829844 39.3638282,38.6018813 C39.5092326,38.8207781 39.4603725,39.1148777 39.252,39.275 L34.962,42.523 L38.452,40.509 C38.6826768,40.3728761 38.9796494,40.4427071 39.1254904,40.6673666 C39.2713314,40.8920261 39.2142332,41.1917075 38.996,41.347 L38.396,41.784 C38.6149016,41.7137054 38.8535263,41.801749 38.9743128,41.9973758 C39.0950994,42.1930027 39.066912,42.445785 38.906,42.61 L36.844,44.723 L38.034,44.036 C38.2419146,43.9165706 38.5053404,43.9615501 38.6618456,44.1432036 C38.8183508,44.324857 38.82387,44.5920384 38.675,44.78 L38.163,45.424 C38.3786169,45.4459965 38.5555111,45.6044032 38.6010792,45.8162948 C38.6466472,46.0281864 38.550512,46.2453091 38.363,46.354 L36.533,47.4 C36.3248894,47.5193003 36.0613782,47.473993 35.9050651,47.2920347 C35.7487519,47.1100765 35.7436889,46.8427466 35.893,46.655 L36.24,46.219 L34.192,47.4 C33.975843,47.5232114 33.7019817,47.4687436 33.5494205,47.2721985 C33.3968593,47.0756535 33.412023,46.7968402 33.585,46.618 L35.647,44.506 L30.633,47.4 C30.4023232,47.5361239 30.1053506,47.4662929 29.9595096,47.2416334 C29.8136686,47.0169739 29.8707668,46.7172925 30.089,46.562 L30.607,46.187 L28.507,47.4 C28.2786165,47.5299972 27.9885762,47.4610156 27.8431718,47.2421187 C27.6977674,47.0232219 27.7466275,46.7291223 27.955,46.569 L32.248,43.319 L25.177,47.4 C24.9465816,47.5322364 24.6529811,47.4611893 24.5085136,47.2382358 C24.3640462,47.0152823 24.41916,46.7182782 24.634,46.562 L31.092,41.885 L21.537,47.4 C21.3042231,47.5270897 21.012714,47.4503218 20.8727259,47.225066 C20.7327379,46.9998101 20.7929791,46.7044427 21.01,46.552 L26.133,43.14 L18.751,47.4 C18.5162287,47.5336383 18.2177601,47.4566316 18.0769491,47.2260909 C17.9361382,46.9955501 18.0039089,46.6948498 18.23,46.547 L21.775,44.267 L16.349,47.4 C16.1142966,47.5364868 15.8135626,47.4607325 15.6715259,47.2293456 C15.5294891,46.9979588 15.5980609,46.6955062 15.826,46.548 L23.333,41.681 L13.425,47.4 C13.1907522,47.5308833 12.8949565,47.4535271 12.7547738,47.2247231 C12.6145911,46.9959191 12.6800088,46.6972561 12.903,46.548 L23.225,39.87 L10.181,47.4 C10.1054799,47.4456395 10.0192267,47.4704804 9.931,47.472 Z" fill="#F9E6A1" id="Path"/><path d="M3.674,10.471 C3.53057784,10.4702787 3.39437116,10.4080024 3.3,10.3 C3.14231502,10.121624 3.13227445,9.8568039 3.276,9.667 L4.768,7.7 L2.28,9.14 C2.09224209,9.24413459 1.8589627,9.21677614 1.7003935,9.07202511 C1.54182431,8.92727409 1.49336846,8.69744853 1.58,8.501 L2.18,7.177 C1.98181129,7.19934983 1.78903336,7.10296087 1.688,6.931 C1.54976728,6.69212161 1.63122867,6.38641758 1.87,6.248 L2.992,5.6 C3.17975791,5.49586541 3.4130373,5.52322386 3.5716065,5.66797489 C3.73017569,5.81272591 3.77863154,6.04255147 3.692,6.239 L3.122,7.499 L6.412,5.599 C6.61806126,5.48059388 6.87899602,5.52359762 7.03616339,5.70186616 C7.19333075,5.8801347 7.20329577,6.14440154 7.06,6.334 L5.573,8.3 L10.25,5.6 C10.4556252,5.48239932 10.7155534,5.52522566 10.8725815,5.70257788 C11.0296096,5.8799301 11.0406394,6.14313182 10.899,6.333 L9.409,8.318 L14.118,5.6 C14.3337843,5.4754165 14.6083641,5.52872151 14.7618596,5.72499441 C14.9153551,5.9212673 14.9009153,6.20060046 14.728,6.38 L13.394,7.758 L17.138,5.6 C17.3442518,5.48175589 17.6052436,5.52509486 17.7622099,5.70365311 C17.9191762,5.88221136 17.9287051,6.14660541 17.785,6.336 L16.292,8.29 L20.957,5.6 C21.1807424,5.47077218 21.4660949,5.53330284 21.6152921,5.74425468 C21.7644893,5.95520652 21.7283843,6.24509026 21.532,6.413 L21.039,6.835 L23.178,5.6 C23.3838333,5.47988844 23.6458297,5.52174089 23.804,5.7 C23.9607219,5.87975818 23.9686762,6.14517941 23.823,6.334 L22.329,8.273 L26.965,5.6 C27.1759099,5.47820286 27.4438947,5.52609049 27.5995697,5.71339461 C27.7552446,5.90069873 27.7533148,6.17292178 27.595,6.358 L26.12,8.075 L30.413,5.6 C30.6384575,5.46695631 30.9283687,5.53034021 31.0777344,5.7453323 C31.2271,5.96032438 31.1853473,6.25413167 30.982,6.419 L30.79,6.578 L32.482,5.6 C32.6927644,5.47680276 32.9616808,5.52382075 33.1181391,5.71122407 C33.2745973,5.89862739 33.2728476,6.17161761 33.114,6.357 L31.634,8.1 L35.971,5.6 C36.181704,5.47813402 36.4495513,5.52570735 36.6054017,5.71267838 C36.761252,5.89964942 36.7598158,6.17168496 36.602,6.357 L35.123,8.1 L39.454,5.6 C39.6649099,5.47820286 39.9328947,5.52609049 40.0885697,5.71339461 C40.2442446,5.90069873 40.2423148,6.17292178 40.084,6.358 L38.609,8.072 L42.9,5.6 C43.1113234,5.47832679 43.3795951,5.52683964 43.5349231,5.71481618 C43.6902511,5.90279271 43.6873259,6.17539983 43.528,6.36 L42.06,8.06 L44.71,6.529 C44.9146858,6.41050863 45.1743967,6.45163982 45.3324526,6.62757968 C45.4905085,6.80351954 45.5036712,7.06613765 45.364,7.257 L44.564,8.357 L44.728,8.257 C44.96693,8.12115485 45.2707102,8.20362922 45.4081373,8.44165285 C45.5455643,8.67967648 45.4651068,8.98399711 45.228,9.123 L43.012,10.4 C42.8075012,10.5186784 42.5478266,10.4778888 42.3895625,10.3022277 C42.2312984,10.1265667 42.2177137,9.86405927 42.357,9.673 L43.163,8.567 L39.988,10.4 C39.7766766,10.5216732 39.5084049,10.4731604 39.3530769,10.2851838 C39.1977489,10.0972073 39.2006741,9.82460017 39.36,9.64 L40.829,7.94 L36.572,10.4 C36.3610901,10.5217971 36.0931053,10.4739095 35.9374303,10.2866054 C35.7817554,10.0993013 35.7836852,9.82707822 35.942,9.642 L37.417,7.924 L33.128,10.4 C32.9175641,10.5206411 32.6508921,10.4728408 32.4954607,10.2866187 C32.3400294,10.1003967 32.3406783,9.82947529 32.497,9.644 L33.977,7.9 L29.645,10.4 C29.4345012,10.5219393 29.1667877,10.4746814 29.0107606,10.2880414 C28.8547335,10.1014014 28.8556788,9.82955043 29.013,9.644 L30.493,7.9 L26.156,10.4 C25.9305425,10.5330437 25.6406313,10.4696598 25.4912656,10.2546677 C25.3419,10.0396756 25.3836527,9.74586833 25.587,9.581 L25.779,9.422 L24.087,10.4 C23.8760901,10.5217971 23.6081053,10.4739095 23.4524303,10.2866054 C23.2967554,10.0993013 23.2986852,9.82707822 23.457,9.642 L24.932,7.92 L20.638,10.4 C20.431308,10.519093 20.169272,10.4755884 20.0121532,10.2960935 C19.8550344,10.1165987 19.8465965,9.85110982 19.992,9.662 L21.486,7.724 L16.852,10.4 C16.6281332,10.5315043 16.3408623,10.4697824 16.1907678,10.2579302 C16.0406733,10.046078 16.0777022,9.75459384 16.276,9.587 L16.77,9.165 L14.631,10.4 C14.4244463,10.5204302 14.161537,10.4777714 14.003659,10.2982096 C13.8457811,10.1186478 13.8371232,9.85244086 13.983,9.663 L15.477,7.71 L10.811,10.4 C10.5949135,10.5262428 10.3187746,10.473282 10.1647273,10.276051 C10.0106801,10.07882 10.0261786,9.79807572 10.201,9.619 L11.535,8.239 L7.791,10.4 C7.58512889,10.5185713 7.32424867,10.4759036 7.1668793,10.2979235 C7.00950992,10.1199433 6.99911047,9.85580157 7.142,9.666 L8.631,7.683 L3.924,10.4 C3.84838156,10.4452887 3.76213477,10.4697828 3.674,10.471 Z" fill="#EBD996" id="Path"/><path d="M44.36,5.587 C42.986,5.023 40.389,5.471 38.724,5.559 L38.724,0.806 C38.724,0.672 38.371,0.7 38.313,0.706 C28.3758968,1.36650204 18.4058368,1.36449761 8.469,0.7 C8.206,0.682 7.276,0.816 7.276,1.193 L7.276,5.423 C5.94893385,5.27042244 4.60631345,5.32236002 3.295,5.577 C1.608,6.022 -0.051,8.311 1.621,9.993 C2.45138613,10.5140711 3.44464068,10.7109419 4.411,10.546 C4.787,14.3106667 5.16333333,18.0753333 5.54,21.84 C4.755,22.205 4.49,22.898 4.54,24.366 C4.705,29.566 5.804,34.893 6.423,40.055 C6.677,42.174 6.232,45.855 8.085,47.167 C8.085,47.176 8.079,47.184 8.085,47.193 L9.285,59.193 C9.303,59.376 9.598,59.45 9.738,59.45 L35.738,59.45 C36.03,59.45 36.697,59.321 36.738,58.92 C37.1286667,55.006 37.52,51.0916667 37.912,47.177 C39.912,45.756 39.467,40.921 39.712,38.902 L40.753,30.226 C40.988,28.268 41.861,25.501 41.553,23.542 C41.383,22.455 41.009,21.932 40.447,21.68 C40.8156667,17.928 41.1876667,14.1753333 41.563,10.422 L43.721,10.422 C43.8023102,10.4199454 43.8828609,10.4057901 43.96,10.38 C44.0730544,10.3753719 44.1845624,10.3520566 44.29,10.311 C45.2333356,9.91330784 45.8522953,8.99548258 45.8674633,7.97185615 C45.8826314,6.94822971 45.2911381,6.01246802 44.36,5.587 Z M8.692,1.363 C15.301,1.771 21.923,1.905 28.544,1.727 C30.115,1.685 36.844,0.847 37.276,1.409 C37.697,1.952 37.42,4.318 37.313,5.578 L10.061,5.578 C9.636,5.578 9.169,5.552 8.685,5.52 C8.322,4.878 8.592,2.562 8.692,1.363 Z M2.725,7.913 C2.549,5.6 4.525,6.422 6.435,6.422 L40.008,6.422 C40.782,6.422 42.383,6.105 43.098,6.422 C43.898,6.778 45.14,8.822 43.919,9.578 L7.292,9.578 C5.386,9.578 2.914,10.387 2.725,7.913 Z M34.856,58.549 C33.9112381,58.4904991 32.9637619,58.4904991 32.019,58.549 L14.919,58.549 C14.202,58.549 10.904,59.033 10.324,58.549 C10.736,58.893 10.261,54.141 10.175,53.279 L9.614,47.667 C10.835,47.777 12.342,47.535 13.423,47.535 L36.427,47.535 L35.872,53.078 C35.6706591,54.3850646 35.5391392,55.701933 35.478,57.023 C35.478,57.143 35.342,58.023 35.358,58.561 C35.1907051,58.5744838 35.0224595,58.570462 34.856,58.549 Z M38.811,34.18 C38.611,35.886 38.639,45.302 36.934,46.465 L13.934,46.465 C11.273,46.465 9.113,47.382 8.468,44.651 C7.438,40.292 7.368,35.468 6.832,31.021 C6.632,29.391 5.05,23.621 6.31,22.535 C6.47312746,22.4139562 6.65926808,22.3275216 6.857,22.281 L12.584,22.281 C13.954,22.403 15.158,22.535 15.71,22.535 L31.061,22.535 C31.597,22.535 32.796,22.399 34.142,22.281 L39.142,22.281 C39.3490589,22.3243826 39.5446454,22.4109314 39.716,22.535 C41.286,23.856 39.03,32.35 38.811,34.18 Z M39.576,16.194 L39.049,21.457 C38.649,21.451 38.198,21.465 37.706,21.465 L21.576,21.465 C16.89,21.465 11.959,21.021 7.291,21.465 C7.169,21.477 7.07,21.493 6.958,21.506 C6.172,20.42 6.505,16.615 6.377,15.333 C6.21366667,13.7043333 6.051,12.076 5.889,10.448 C6.096,10.433 6.289,10.422 6.435,10.422 L40.335,10.422 C40.569,11.341 39.661,15.342 39.576,16.194 Z" fill="#262626" fill-rule="nonzero" id="Shape"/><path d="M8.8,14.194 C8.93333333,15.5273333 9.06666667,16.8606667 9.2,18.194 C9.23,18.494 10.69,18.213 10.649,17.806 C10.5156667,16.4726667 10.3823333,15.1393333 10.249,13.806 C10.214,13.51 8.754,13.787 8.8,14.194 Z" fill="#262626" id="Path"/><path d="M12.5,51.194 C12.6333333,52.5273333 12.7666667,53.8606667 12.9,55.194 C12.935,55.543 14.394,55.255 14.349,54.806 C14.2156667,53.4726667 14.0823333,52.1393333 13.949,50.806 C13.91,50.457 12.451,50.744 12.5,51.194 Z" fill="#262626" id="Path"/><path d="M10.473,27.806 L10.233,25.806 C10.198,25.506 8.733,25.797 8.784,26.194 L9.024,28.194 C9.06,28.492 10.521,28.2 10.473,27.806 Z" fill="#262626" id="Path"/><path d="M9.5,32.194 L10.7,42.194 C10.775,42.82 12.229,42.471 12.149,41.806 L10.949,31.806 C10.878,31.18 9.425,31.529 9.5,32.194 Z" fill="#262626" id="Path"/></g></g></svg>